<?xml version="1.0" encoding="UTF-8" standalone="no"?>
<svg
   viewBox="120 120 800 800"
   role="img"
   aria-labelledby="title desc"
   version="1.1"
   id="svg12"
   sodipodi:docname="isotipo-sial.svg"
   inkscape:version="1.4.2 (f4327f4, 2025-05-13)"
   xmlns:inkscape="http://www.inkscape.org/namespaces/inkscape"
   xmlns:sodipodi="http://sodipodi.sourceforge.net/DTD/sodipodi-0.dtd"
   xmlns:xlink="http://www.w3.org/1999/xlink"
   xmlns="http://www.w3.org/2000/svg"
   xmlns:svg="http://www.w3.org/2000/svg">
  <sodipodi:namedview
     id="namedview12"
     pagecolor="#ffffff"
     bordercolor="#000000"
     borderopacity="0.25"
     inkscape:showpageshadow="2"
     inkscape:pageopacity="0.0"
     inkscape:pagecheckerboard="0"
     inkscape:deskcolor="#d1d1d1"
     inkscape:zoom="0.48339844"
     inkscape:cx="512"
     inkscape:cy="512"
     inkscape:window-width="1920"
     inkscape:window-height="1009"
     inkscape:window-x="-8"
     inkscape:window-y="-8"
     inkscape:window-maximized="1"
     inkscape:current-layer="svg12" />
  <title
     id="title">Isotipo SIAL</title>
  <desc
     id="desc">Recreacion vectorial del isotipo SIAL: hoja digital con trazos de circuito y banano integrado.</desc>
  <defs
     id="defs2">
    <linearGradient
       id="blue"
       x1="138"
       x2="820"
       y1="138"
       y2="820"
       gradientUnits="userSpaceOnUse">
      <stop
         stop-color="#005CA8"
         id="stop1" />
      <stop
         offset="1"
         stop-color="#004B91"
         id="stop2" />
    </linearGradient>
    <clipPath
       id="leafClip">
      <path
         d="M162 884V524c0-205 166-371 371-371h318c10 0 18 8 18 18v318c0 205-166 371-371 371H186c-13 0-24 11-24 24z"
         id="path2" />
    </clipPath>
    <filter
       id="soft"
       x="-0.034070071"
       y="-0.00011640957"
       width="1.041266"
       height="1.0308179">
      <feDropShadow
         dx="0"
         dy="10"
         stdDeviation="18"
         flood-color="#002E5B"
         flood-opacity=".10" />
      <feGaussianBlur
         stdDeviation="0.036475"
         id="feGaussianBlur12" />
    </filter>
    <clipPath
       id="leafClip-6">
      <path
         d="M 162,884 V 524 C 162,319 328,153 533,153 h 318 c 10,0 18,8 18,18 V 489 C 869,694 703,860 498,860 H 186 c -13,0 -24,11 -24,24 z"
         id="path4-1" />
    </clipPath>
    <linearGradient
       inkscape:collect="always"
       xlink:href="#blue"
       id="linearGradient12"
       gradientUnits="userSpaceOnUse"
       x1="138"
       y1="138"
       x2="820"
       y2="820" />
  </defs>
  <g
     transform="matrix(1.0047868,0,0,1.0054432,-4.5532335,-4.6105913)"
     clip-path="url(#leafClip-6)"
     id="g14">
    <path
       fill="url(#blue)"
       d="M 162,884 V 524 C 162,319 328,153 533,153 h 318 c 10,0 18,8 18,18 v 318 c 0,205 -166.00526,369.53091 -371,371 l -300.16867,2.15115 C 184.83166,862.24431 162,871 162,884 Z"
       id="path5-4"
       sodipodi:nodetypes="csssssssc"
       style="fill:url(#linearGradient12)" />
    <path
       id="banana-accent-2"
       fill="#fecc00"
       d="m 486,866 c 20,-76 58,-127 118,-160 52,-28 100,-21 144,-66 45,-46 78,-102 112,-130 l 9,359 z" />
    <path
       id="banana-separator-3"
       fill="none"
       stroke="#ffffff"
       stroke-width="28"
       stroke-linecap="round"
       stroke-linejoin="round"
       d="m 486,866 c 20,-76 58,-127 118,-160 52,-28 100,-21 144,-66 38.3738,-39.22655 86.82535,-101.21056 121.34584,-135.9772 5.96083,-6.00334 14.19522,-26.2532 19.20169,-30.37617"
       sodipodi:nodetypes="cccsc" />
    <path
       fill="none"
       stroke="#ffffff"
       stroke-width="48"
       stroke-linecap="round"
       stroke-linejoin="round"
       d="m 236.2147,874.49295 c -1.7872,-198.09923 41.98343,-409.2361 108.57033,-469.76284 58.03464,-52.75283 173.38951,-69.80776 251.74794,-98.7305"
       id="path6-2"
       sodipodi:nodetypes="csc" />
    <path
       fill="none"
       stroke="#ffffff"
       stroke-width="46"
       stroke-linecap="round"
       stroke-linejoin="round"
       d="m 353.55754,851.73274 c -7.59431,-99.70678 -17.56539,-303.09726 70.23418,-326.48582 6.92159,-1.84381 72.42887,4.19778 56.53364,-54.68669 -7.42581,-27.50917 21.26119,-69.30566 93.28945,-25.1792"
       id="path7-2"
       sodipodi:nodetypes="cssc" />
    <path
       fill="none"
       stroke="#ffffff"
       stroke-width="46"
       stroke-linecap="round"
       stroke-linejoin="round"
       d="M 393.02302,854.95947 C 347.8748,626.09941 407.06401,683.2609 540.63964,590.43593 M 202.25116,858.80959 C 225.13026,633.62681 246.66352,476.54342 351.09623,398.0727"
       id="path8"
       sodipodi:nodetypes="cccc" />
    <circle
       cx="653.09302"
       cy="294.87479"
       r="62"
       fill="#ffffff"
       id="circle9-1" />
    <circle
       fill="#005ca8"
       id="circle10-6"
       r="30"
       cy="294.87479"
       cx="651.57184" />
    <circle
       cx="606.69666"
       cy="459.33185"
       r="57"
       fill="#ffffff"
       id="circle11-8" />
    <circle
       fill="#005ca8"
       id="circle14-9"
       r="27"
       cy="460.69028"
       cx="605.51227" />
    <circle
       cx="566.45343"
       cy="587.20923"
       r="57"
       fill="#ffffff"
       id="circle13" />
    <circle
       fill="#005ca8"
       id="circle14"
       r="27"
       cy="588.28479"
       cx="568.60461" />
  </g>
</svg>
